<svg xmlns="http://www.w3.org/2000/svg" xmlns:xlink="http://www.w3.org/1999/xlink" width="600" height="500">
  <defs>
    <path id="a" d="M0 139h106c5 0 9 4 9 9v12h85V0H0v139Z"/>
  </defs>
  <path fill="#FFF" fill-opacity=".3" fill-rule="nonzero" d="M77 265.5c0-1.9-1.6-3.5-3.5-3.5a3.5 3.5 0 0 0-3.5 3.5c0 1.9 1.6 3.5 3.5 3.5s3.5-1.6 3.5-3.5Zm0-14c0-1.9-1.6-3.5-3.5-3.5a3.5 3.5 0 0 0-3.5 3.5c0 1.9 1.6 3.5 3.5 3.5s3.5-1.6 3.5-3.5Zm0-14c0-1.9-1.6-3.5-3.5-3.5a3.5 3.5 0 0 0-3.5 3.5c0 1.9 1.6 3.5 3.5 3.5s3.5-1.6 3.5-3.5Zm0-14c0-1.9-1.6-3.5-3.5-3.5a3.5 3.5 0 0 0-3.5 3.5c0 1.9 1.6 3.5 3.5 3.5s3.5-1.6 3.5-3.5Zm0-14c0-1.9-1.6-3.5-3.5-3.5a3.5 3.5 0 0 0-3.5 3.5c0 1.9 1.6 3.5 3.5 3.5s3.5-1.6 3.5-3.5Zm0-14c0-1.9-1.6-3.5-3.5-3.5a3.5 3.5 0 0 0-3.5 3.5c0 1.9 1.6 3.5 3.5 3.5s3.5-1.6 3.5-3.5Zm0-14c0-1.9-1.6-3.5-3.5-3.5a3.5 3.5 0 0 0-3.5 3.5c0 1.9 1.6 3.5 3.5 3.5s3.5-1.6 3.5-3.5Zm0-14c0-1.9-1.6-3.5-3.5-3.5a3.5 3.5 0 0 0-3.5 3.5c0 1.9 1.6 3.5 3.5 3.5s3.5-1.6 3.5-3.5Zm0-14c0-1.9-1.6-3.5-3.5-3.5a3.5 3.5 0 0 0-3.5 3.5c0 1.9 1.6 3.5 3.5 3.5s3.5-1.6 3.5-3.5Zm14 112c0-1.9-1.6-3.5-3.5-3.5a3.5 3.5 0 0 0-3.5 3.5c0 1.9 1.6 3.5 3.5 3.5 2 0 3.5-1.6 3.5-3.5Zm14 0c0-1.9-1.6-3.5-3.5-3.5a3.5 3.5 0 0 0-3.5 3.5c0 1.9 1.6 3.5 3.5 3.5 2 0 3.5-1.6 3.5-3.5Zm14 0c0-1.9-1.6-3.5-3.5-3.5a3.5 3.5 0 0 0-3.5 3.5c0 1.9 1.6 3.5 3.5 3.5 2 0 3.5-1.6 3.5-3.5Zm14 0c0-1.9-1.6-3.5-3.5-3.5a3.5 3.5 0 0 0-3.5 3.5c0 1.9 1.6 3.5 3.5 3.5 2 0 3.5-1.6 3.5-3.5Zm432 103c0-1.9 1.6-3.5 3.5-3.5s3.5 1.6 3.5 3.5-1.6 3.5-3.5 3.5a3.5 3.5 0 0 1-3.5-3.5Zm14 0c0-1.9 1.6-3.5 3.5-3.5s3.5 1.6 3.5 3.5-1.6 3.5-3.5 3.5a3.5 3.5 0 0 1-3.5-3.5Zm14 0c0-1.9 1.6-3.5 3.5-3.5s3.5 1.6 3.5 3.5-1.6 3.5-3.5 3.5a3.5 3.5 0 0 1-3.5-3.5Zm-42 0c0-1.9 1.6-3.5 3.5-3.5s3.5 1.6 3.5 3.5-1.6 3.5-3.5 3.5a3.5 3.5 0 0 1-3.5-3.5Zm-14 0c0-1.9 1.6-3.5 3.5-3.5s3.5 1.6 3.5 3.5-1.6 3.5-3.5 3.5a3.5 3.5 0 0 1-3.5-3.5Zm-14 0c0-1.9 1.6-3.5 3.5-3.5s3.5 1.6 3.5 3.5-1.6 3.5-3.5 3.5a3.5 3.5 0 0 1-3.5-3.5Zm-14 0c0-1.9 1.6-3.5 3.5-3.5s3.5 1.6 3.5 3.5-1.6 3.5-3.5 3.5a3.5 3.5 0 0 1-3.5-3.5Zm-14 0c0-1.9 1.6-3.5 3.5-3.5s3.5 1.6 3.5 3.5-1.6 3.5-3.5 3.5a3.5 3.5 0 0 1-3.5-3.5Zm-14 0c0-1.9 1.6-3.5 3.5-3.5s3.5 1.6 3.5 3.5-1.6 3.5-3.5 3.5a3.5 3.5 0 0 1-3.5-3.5Z"/>
  <g transform="translate(370 60)">
    <mask id="b" fill="#fff">
      <use xlink:href="#a"/>
    </mask>
    <use xlink:href="#a" fill="#000"/>
    <g fill-rule="nonzero" mask="url(#b)">
      <path fill="#323232" stroke="#0B0C0C" stroke-width="6" d="M197 3v154H3V3h194Z"/>
      <path fill="#B1B4B6" d="M43.6 30 23.3 18.4c-.4-.2-.8-.4-1.2-.4a2 2 0 0 0-2 2c0 .9.5 1.6 1.3 2l15.8 9-16 9.1a2 2 0 0 0-1.2 2c0 1 .9 1.9 2 1.9.4 0 .9-.2 1.2-.4l20.3-11.7c.5-.3.6-1 .4-1.5 0-.2-.2-.3-.3-.4Zm30.8 24.5c-.5-.4-1.1-.6-1.7-.5H47.2c-.6 0-1.2.1-1.6.5-.8.7-.8 2 0 2.9.5.5 1 .7 1.6.6h25.5c.6 0 1.2-.1 1.7-.5a2 2 0 0 0 0-3Z"/>
    </g>
  </g>
  <path fill="#FFF" d="M138 206h340v230H138z" opacity=".3"/>
  <path fill="#1E1E1E" fill-rule="nonzero" d="M476.4 198.5c5.6 0 9.1 3.8 9.1 9.8v238.2h-355V208.3c0-6 3.5-9.8 9-9.8h337ZM280 206H142a4 4 0 0 0-4 4v226h340V210a4 4 0 0 0-4-4H336v6a3 3 0 0 1-3 3h-50a3 3 0 0 1-3-3v-6Z"/>
  <path fill="#EDEDED" fill-rule="nonzero" d="M486 446h-1V207.5c0-5-3.5-8.5-8.5-8.5h-337c-5 0-8.5 3.5-8.5 8.5V446h-1V207.5c0-5.5 4-9.5 9.5-9.5h337c5.5 0 9.5 4 9.5 9.5V446Z"/>
  <path fill="#808283" fill-rule="nonzero" d="M269 446h78v7h-78z"/>
  <path fill="#B1B4B6" fill-rule="nonzero" d="M339.5 452.5H276c-5 0-6.5-3-6.5-6.5H80v10a8 8 0 0 0 8 8h440a8 8 0 0 0 8-8v-10H346.5c0 4-2 6.5-7 6.5Z"/>
  <path fill="none" stroke="#EDEDED" d="M536 446.5H346.5c0 4-2.5 6-6.5 6h-64c-4 0-6.5-2-6.5-6H80"/>
  <path fill="#A5A9AB" fill-rule="nonzero" d="M80 456v.1a8 8 0 0 0 8 7.9h440a7.9 7.9 0 0 0 7.9-8 8.5 8.5 0 0 1-5.5 2H86c-2.1 0-4.2-.7-5.9-2Z"/>
  <path fill="#000" fill-opacity=".5" fill-rule="nonzero" d="M105 466h406l20 4H85z"/>
  <path fill="#505A5F" fill-rule="nonzero" d="m107.4 464 5.7 3h38.6l5.7-3zm352 0 5.7 3h38.6l5.7-3z"/>
  <path fill="#FFF" fill-rule="nonzero" stroke="#0B0C0C" stroke-width="2" d="M179 240h258v168H179z"/>
  <path fill="#0B0C0C" fill-rule="nonzero" d="M179 240h258v28H179z"/>
  <path fill="#B1B4B6" d="M196 282h142v9H196z"/>
  <path fill="#F3F2F1" fill-rule="nonzero" d="M196 375h79v20h-79v-20Zm0-74h120v64H196v-64Z"/>
  <text fill="#FFF" font-family="system-ui, sans-serif" font-size="16" transform="translate(180 240)">
    <tspan x="16" y="20">Service</tspan>
  </text>
  <path fill="#FFF" fill-rule="nonzero" stroke="#0B0C0C" stroke-width="4" d="M20 2h196v148H20z"/>
  <path fill="#0B0C0C" d="M30 12h156v15H30z"/>
  <path fill="#B1B4B6" fill-rule="nonzero" d="M31 40h82v9H31v-9Zm0 21h113v9H31v-9Z"/>
  <path fill="#FD0" fill-rule="nonzero" d="M31 82h96v15H31z"/>
  <path fill="#0B0C0C" fill-rule="nonzero" d="M31 97h96v2H31z"/>
  <g fill-rule="nonzero">
    <path fill="#FFF" fill-opacity=".5" d="M252 147h28v9h-28v-9Zm0-56h28v9h-28v-9Z"/>
    <g transform="translate(192 127)">
      <circle cx="24" cy="24" r="20" fill="#FFF"/>
      <path fill="#0B0C0C" d="M24 8a16 16 0 0 1 16 16 16 16 0 0 1-16 16A16 16 0 0 1 8 24 16 16 0 0 1 24 8m0-4C13 4 4 13 4 24s9 20 20 20 20-9 20-20S35 4 24 4Z"/>
      <path fill="#FD0" d="M24 4c11 0 20 9 20 20s-9 20-20 20S4 35 4 24 13 4 24 4m0-4a24 24 0 1 0 0 48 24 24 0 1 0 0-48Z"/>
      <circle cx="24" cy="24" r="10" fill="#0B0C0C"/>
    </g>
    <path fill="#FFF" d="M197 77h36v36h-36z"/>
    <path fill="#0B0C0C" d="M231 79v32h-32V79h32m4-4h-40v40h40V75Z"/>
    <path fill="#0B0C0C" d="m228 88.5-3.5-3.5-12.9 12.8-5.1-5-3.5 3.6 8.6 8.6L228 88.5"/>
    <path fill="#FD0" d="M235 75v40h-40V75h40m3-3h-46v46h46V72Z"/>
  </g>
  <path fill="#000" fill-opacity=".3" fill-rule="nonzero" d="M75.4 496h25.2l3.4 4H72z"/>
  <path fill="#ED3B1F" d="m36 374 24 36H12z"/>
  <path fill="#F86A54" d="M36 374h52l-28 36z"/>
  <path fill="#ED3B1F" d="M88 374h52l-24 36z"/>
  <path fill="#99220F" d="m88 374 28 36H60z"/>
  <path fill="#801C0D" d="m88 498 76-88h-48z"/>
  <path fill="#F86A54" d="m88 498-28-88H12z"/>
  <path fill="#CC3F29" d="m88 498 28-88H60zm52-124 24 36h-48z"/>
</svg>
